<svg xmlns="http://www.w3.org/2000/svg" viewBox="0 0 1200 720" fill="none">
  <defs>
    <linearGradient id="bgGradDark" x1="0%" y1="0%" x2="100%" y2="100%">
      <stop offset="0%" style="stop-color:#0f0f23"/>
      <stop offset="100%" style="stop-color:#1a1a2e"/>
    </linearGradient>
    <linearGradient id="purpleGradD" x1="0%" y1="0%" x2="0%" y2="100%">
      <stop offset="0%" style="stop-color:#a78bfa"/>
      <stop offset="100%" style="stop-color:#7c3aed"/>
    </linearGradient>
    <linearGradient id="blueGradD" x1="0%" y1="0%" x2="0%" y2="100%">
      <stop offset="0%" style="stop-color:#818cf8"/>
      <stop offset="100%" style="stop-color:#6366f1"/>
    </linearGradient>
    <linearGradient id="greenGradD" x1="0%" y1="0%" x2="0%" y2="100%">
      <stop offset="0%" style="stop-color:#34d399"/>
      <stop offset="100%" style="stop-color:#10b981"/>
    </linearGradient>
    <linearGradient id="orangeGradD" x1="0%" y1="0%" x2="0%" y2="100%">
      <stop offset="0%" style="stop-color:#fbbf24"/>
      <stop offset="100%" style="stop-color:#f59e0b"/>
    </linearGradient>
    <linearGradient id="pinkGradD" x1="0%" y1="0%" x2="0%" y2="100%">
      <stop offset="0%" style="stop-color:#f472b6"/>
      <stop offset="100%" style="stop-color:#ec4899"/>
    </linearGradient>
    <filter id="shadowD" x="-4%" y="-4%" width="108%" height="108%">
      <feDropShadow dx="0" dy="4" stdDeviation="8" flood-color="#000" flood-opacity="0.4"/>
    </filter>
    <filter id="glowD" x="-20%" y="-20%" width="140%" height="140%">
      <feGaussianBlur stdDeviation="4" result="blur"/>
      <feMerge><feMergeNode in="blur"/><feMergeNode in="SourceGraphic"/></feMerge>
    </filter>
  </defs>

  <!-- Background -->
  <rect width="1200" height="720" rx="16" fill="url(#bgGradDark)"/>

  <!-- Subtle grid -->
  <pattern id="grid" width="40" height="40" patternUnits="userSpaceOnUse">
    <path d="M 40 0 L 0 0 0 40" fill="none" stroke="#1e1e3f" stroke-width="0.5"/>
  </pattern>
  <rect width="1200" height="720" fill="url(#grid)" opacity="0.3"/>

  <!-- Title -->
  <text x="600" y="45" text-anchor="middle" font-family="system-ui, -apple-system, sans-serif" font-size="22" font-weight="700" fill="#e2e8f0">HeyClara System Architecture</text>

  <!-- YOU node -->
  <circle cx="100" cy="360" r="40" fill="url(#blueGradD)" filter="url(#shadowD)"/>
  <text x="100" y="355" text-anchor="middle" font-family="system-ui" font-size="24" fill="white">You</text>
  <text x="100" y="375" text-anchor="middle" font-family="system-ui" font-size="10" fill="#c7d2fe">Owner</text>

  <!-- Channel boxes -->
  <g filter="url(#shadowD)">
    <rect x="200" y="80" width="140" height="56" rx="12" fill="#1e1e3f" stroke="#f472b6" stroke-width="2"/>
    <text x="270" y="105" text-anchor="middle" font-family="system-ui" font-size="12" font-weight="600" fill="#f9a8d4">Telegram</text>
    <text x="270" y="122" text-anchor="middle" font-family="system-ui" font-size="10" fill="#6b7280">grammY</text>
  </g>
  <g filter="url(#shadowD)">
    <rect x="200" y="160" width="140" height="56" rx="12" fill="#1e1e3f" stroke="#f472b6" stroke-width="2"/>
    <text x="270" y="185" text-anchor="middle" font-family="system-ui" font-size="12" font-weight="600" fill="#f9a8d4">Slack</text>
    <text x="270" y="202" text-anchor="middle" font-family="system-ui" font-size="10" fill="#6b7280">Bolt + Socket Mode</text>
  </g>
  <g filter="url(#shadowD)">
    <rect x="200" y="240" width="140" height="56" rx="12" fill="#1e1e3f" stroke="#f472b6" stroke-width="2"/>
    <text x="270" y="265" text-anchor="middle" font-family="system-ui" font-size="12" font-weight="600" fill="#f9a8d4">Voice &amp; SMS</text>
    <text x="270" y="282" text-anchor="middle" font-family="system-ui" font-size="10" fill="#6b7280">Twilio + OpenAI RT</text>
  </g>
  <g filter="url(#shadowD)">
    <rect x="200" y="320" width="140" height="56" rx="12" fill="#1e1e3f" stroke="#f472b6" stroke-width="2"/>
    <text x="270" y="345" text-anchor="middle" font-family="system-ui" font-size="12" font-weight="600" fill="#f9a8d4">WhatsApp</text>
    <text x="270" y="362" text-anchor="middle" font-family="system-ui" font-size="10" fill="#6b7280">Twilio Sandbox</text>
  </g>
  <g filter="url(#shadowD)">
    <rect x="200" y="400" width="140" height="56" rx="12" fill="#1e1e3f" stroke="#f472b6" stroke-width="2"/>
    <text x="270" y="425" text-anchor="middle" font-family="system-ui" font-size="12" font-weight="600" fill="#f9a8d4">Terminal</text>
    <text x="270" y="442" text-anchor="middle" font-family="system-ui" font-size="10" fill="#6b7280">REPL CLI</text>
  </g>

  <!-- Channel label -->
  <text x="270" y="68" text-anchor="middle" font-family="system-ui" font-size="11" font-weight="600" fill="#f472b6" letter-spacing="1">CHANNELS</text>

  <!-- Lines from You to channels -->
  <line x1="140" y1="340" x2="200" y2="108" stroke="#818cf8" stroke-width="1.5" opacity="0.4"/>
  <line x1="140" y1="350" x2="200" y2="188" stroke="#818cf8" stroke-width="1.5" opacity="0.4"/>
  <line x1="140" y1="360" x2="200" y2="268" stroke="#818cf8" stroke-width="1.5" opacity="0.4"/>
  <line x1="140" y1="370" x2="200" y2="348" stroke="#818cf8" stroke-width="1.5" opacity="0.4"/>
  <line x1="140" y1="380" x2="200" y2="428" stroke="#818cf8" stroke-width="1.5" opacity="0.4"/>

  <!-- DAEMON box -->
  <rect x="400" y="60" width="360" height="550" rx="20" fill="#16162a" stroke="url(#purpleGradD)" stroke-width="2.5" filter="url(#shadowD)"/>
  <rect x="400" y="60" width="360" height="40" rx="20" fill="url(#purpleGradD)"/>
  <rect x="400" y="80" width="360" height="20" fill="url(#purpleGradD)"/>
  <text x="580" y="86" text-anchor="middle" font-family="system-ui" font-size="13" font-weight="700" fill="white" letter-spacing="1">HEYCLARA DAEMON (Bun.js)</text>

  <!-- Daemon components -->
  <rect x="425" y="115" width="150" height="48" rx="8" fill="#1e1b4b" stroke="#a78bfa" stroke-width="1.5"/>
  <text x="500" y="137" text-anchor="middle" font-family="system-ui" font-size="11" font-weight="600" fill="#c4b5fd">Chat Engine</text>
  <text x="500" y="153" text-anchor="middle" font-family="system-ui" font-size="9" fill="#8b5cf6">Sessions + Streaming</text>

  <rect x="585" y="115" width="150" height="48" rx="8" fill="#1e1b4b" stroke="#a78bfa" stroke-width="1.5"/>
  <text x="660" y="137" text-anchor="middle" font-family="system-ui" font-size="11" font-weight="600" fill="#c4b5fd">Identity Loader</text>
  <text x="660" y="153" text-anchor="middle" font-family="system-ui" font-size="9" fill="#8b5cf6">Persona + Skills</text>

  <rect x="425" y="178" width="150" height="48" rx="8" fill="#1e1b4b" stroke="#a78bfa" stroke-width="1.5"/>
  <text x="500" y="200" text-anchor="middle" font-family="system-ui" font-size="11" font-weight="600" fill="#c4b5fd">Job Scheduler</text>
  <text x="500" y="216" text-anchor="middle" font-family="system-ui" font-size="9" fill="#8b5cf6">Cron + Interval + Once</text>

  <rect x="585" y="178" width="150" height="48" rx="8" fill="#1e1b4b" stroke="#a78bfa" stroke-width="1.5"/>
  <text x="660" y="200" text-anchor="middle" font-family="system-ui" font-size="11" font-weight="600" fill="#c4b5fd">MCP Server</text>
  <text x="660" y="216" text-anchor="middle" font-family="system-ui" font-size="9" fill="#8b5cf6">24 Tools</text>

  <rect x="425" y="241" width="150" height="48" rx="8" fill="#1e1b4b" stroke="#a78bfa" stroke-width="1.5"/>
  <text x="500" y="263" text-anchor="middle" font-family="system-ui" font-size="11" font-weight="600" fill="#c4b5fd">Session Finalizer</text>
  <text x="500" y="279" text-anchor="middle" font-family="system-ui" font-size="9" fill="#8b5cf6">Consolidator + Summary</text>

  <rect x="585" y="241" width="150" height="48" rx="8" fill="#1e1b4b" stroke="#a78bfa" stroke-width="1.5"/>
  <text x="660" y="263" text-anchor="middle" font-family="system-ui" font-size="11" font-weight="600" fill="#c4b5fd">Alive Monitor</text>
  <text x="660" y="279" text-anchor="middle" font-family="system-ui" font-size="9" fill="#8b5cf6">60s Heartbeat</text>

  <rect x="425" y="304" width="310" height="48" rx="8" fill="#1e1b4b" stroke="#a78bfa" stroke-width="1.5"/>
  <text x="580" y="326" text-anchor="middle" font-family="system-ui" font-size="11" font-weight="600" fill="#c4b5fd">Channel Router</text>
  <text x="580" y="342" text-anchor="middle" font-family="system-ui" font-size="9" fill="#8b5cf6">Dispatch + Typing Indicators + Thread Awareness</text>

  <!-- Memory pipeline in daemon -->
  <rect x="425" y="367" width="310" height="65" rx="8" fill="#1a1338" stroke="#7c3aed" stroke-width="1" stroke-dasharray="4,2"/>
  <text x="440" y="385" font-family="system-ui" font-size="9" font-weight="600" fill="#a78bfa">MEMORY PIPELINE</text>
  <rect x="435" y="393" width="85" height="30" rx="6" fill="#2e1065" stroke="#8b5cf6" stroke-width="1"/>
  <text x="477" y="412" text-anchor="middle" font-family="system-ui" font-size="9" fill="#c4b5fd">staging.md</text>
  <text x="530" y="412" text-anchor="middle" font-family="system-ui" font-size="14" fill="#a78bfa">&#x2192;</text>
  <rect x="545" y="393" width="85" height="30" rx="6" fill="#2e1065" stroke="#8b5cf6" stroke-width="1"/>
  <text x="587" y="412" text-anchor="middle" font-family="system-ui" font-size="9" fill="#c4b5fd">promote</text>
  <text x="640" y="412" text-anchor="middle" font-family="system-ui" font-size="14" fill="#a78bfa">&#x2192;</text>
  <rect x="655" y="393" width="70" height="30" rx="6" fill="#581c87" stroke="#a855f7" stroke-width="1"/>
  <text x="690" y="412" text-anchor="middle" font-family="system-ui" font-size="9" fill="#e9d5ff">permanent</text>

  <!-- Employee System -->
  <rect x="425" y="447" width="310" height="48" rx="8" fill="#2e1065" stroke="#d946ef" stroke-width="1.5"/>
  <text x="580" y="469" text-anchor="middle" font-family="system-ui" font-size="11" font-weight="600" fill="#f0abfc">Employee System</text>
  <text x="580" y="485" text-anchor="middle" font-family="system-ui" font-size="9" fill="#c026d3">Persistent AI Co-founders (own memory, goals, decisions)</text>

  <!-- Watch System -->
  <rect x="425" y="510" width="310" height="48" rx="8" fill="#1c1917" stroke="#fb923c" stroke-width="1.5"/>
  <text x="580" y="532" text-anchor="middle" font-family="system-ui" font-size="11" font-weight="600" fill="#fdba74">Watch Channels</text>
  <text x="580" y="548" text-anchor="middle" font-family="system-ui" font-size="9" fill="#f97316">Proactive Slack Monitoring + Hot-Reload Behaviors</text>

  <!-- pg_notify label -->
  <rect x="425" y="573" width="310" height="28" rx="6" fill="#1c1917" stroke="#ca8a04" stroke-width="1"/>
  <text x="580" y="591" text-anchor="middle" font-family="system-ui" font-size="9" font-weight="600" fill="#fde047">pg_notify: clara_jobs + clara_finalize (real-time event bus)</text>

  <!-- Lines from channels to daemon -->
  <line x1="340" y1="108" x2="400" y2="328" stroke="#f472b6" stroke-width="1.5" opacity="0.4"/>
  <line x1="340" y1="188" x2="400" y2="328" stroke="#f472b6" stroke-width="1.5" opacity="0.4"/>
  <line x1="340" y1="268" x2="400" y2="328" stroke="#f472b6" stroke-width="1.5" opacity="0.4"/>
  <line x1="340" y1="348" x2="400" y2="328" stroke="#f472b6" stroke-width="1.5" opacity="0.4"/>
  <line x1="340" y1="428" x2="400" y2="328" stroke="#f472b6" stroke-width="1.5" opacity="0.4"/>

  <!-- AI LAYER -->
  <rect x="820" y="80" width="340" height="260" rx="16" fill="#0f2922" stroke="url(#greenGradD)" stroke-width="2" filter="url(#shadowD)"/>
  <rect x="820" y="80" width="340" height="36" rx="16" fill="url(#greenGradD)"/>
  <rect x="820" y="100" width="340" height="16" fill="url(#greenGradD)"/>
  <text x="990" y="104" text-anchor="middle" font-family="system-ui" font-size="12" font-weight="700" fill="white" letter-spacing="1">AI LAYER</text>

  <rect x="845" y="130" width="140" height="50" rx="8" fill="#064e3b" stroke="#34d399" stroke-width="1.5"/>
  <text x="915" y="152" text-anchor="middle" font-family="system-ui" font-size="11" font-weight="600" fill="#6ee7b7">Claude SDK</text>
  <text x="915" y="170" text-anchor="middle" font-family="system-ui" font-size="9" fill="#34d399">query() + streaming</text>

  <rect x="995" y="130" width="140" height="50" rx="8" fill="#064e3b" stroke="#34d399" stroke-width="1.5"/>
  <text x="1065" y="152" text-anchor="middle" font-family="system-ui" font-size="11" font-weight="600" fill="#6ee7b7">Codex CLI</text>
  <text x="1065" y="170" text-anchor="middle" font-family="system-ui" font-size="9" fill="#34d399">Failover Backend</text>

  <rect x="845" y="195" width="140" height="50" rx="8" fill="#064e3b" stroke="#34d399" stroke-width="1.5"/>
  <text x="915" y="217" text-anchor="middle" font-family="system-ui" font-size="11" font-weight="600" fill="#6ee7b7">Subagents</text>
  <text x="915" y="235" text-anchor="middle" font-family="system-ui" font-size="9" fill="#34d399">Marketer, Dev, Custom</text>

  <rect x="995" y="195" width="140" height="50" rx="8" fill="#064e3b" stroke="#34d399" stroke-width="1.5"/>
  <text x="1065" y="217" text-anchor="middle" font-family="system-ui" font-size="11" font-weight="600" fill="#6ee7b7">OpenAI Realtime</text>
  <text x="1065" y="235" text-anchor="middle" font-family="system-ui" font-size="9" fill="#34d399">Voice Audio Bridge</text>

  <rect x="845" y="260" width="290" height="50" rx="8" fill="#065f46" stroke="#10b981" stroke-width="1.5"/>
  <text x="990" y="282" text-anchor="middle" font-family="system-ui" font-size="11" font-weight="600" fill="#6ee7b7">Gemini (Image Generation)</text>
  <text x="990" y="300" text-anchor="middle" font-family="system-ui" font-size="9" fill="#34d399">Visual identity + general-purpose images</text>

  <!-- Failover label -->
  <text x="990" y="125" text-anchor="middle" font-family="system-ui" font-size="8" fill="#f87171">failover</text>

  <!-- PERSISTENCE -->
  <rect x="820" y="390" width="340" height="220" rx="16" fill="#1c1306" stroke="url(#orangeGradD)" stroke-width="2" filter="url(#shadowD)"/>
  <rect x="820" y="390" width="340" height="36" rx="16" fill="url(#orangeGradD)"/>
  <rect x="820" y="410" width="340" height="16" fill="url(#orangeGradD)"/>
  <text x="990" y="414" text-anchor="middle" font-family="system-ui" font-size="12" font-weight="700" fill="#1c1306" letter-spacing="1">PERSISTENCE</text>

  <rect x="845" y="440" width="140" height="65" rx="8" fill="#292524" stroke="#fbbf24" stroke-width="1.5"/>
  <text x="915" y="462" text-anchor="middle" font-family="system-ui" font-size="11" font-weight="600" fill="#fde68a">PostgreSQL</text>
  <text x="915" y="478" text-anchor="middle" font-family="system-ui" font-size="9" fill="#fbbf24">Jobs</text>
  <text x="915" y="492" text-anchor="middle" font-family="system-ui" font-size="9" fill="#fbbf24">Messages + Sessions</text>

  <rect x="995" y="440" width="140" height="65" rx="8" fill="#292524" stroke="#fbbf24" stroke-width="1.5"/>
  <text x="1065" y="462" text-anchor="middle" font-family="system-ui" font-size="11" font-weight="600" fill="#fde68a">~/.heyclara/</text>
  <text x="1065" y="478" text-anchor="middle" font-family="system-ui" font-size="9" fill="#fbbf24">Config + Persona</text>
  <text x="1065" y="492" text-anchor="middle" font-family="system-ui" font-size="9" fill="#fbbf24">Job State + Watches</text>

  <rect x="845" y="520" width="290" height="55" rx="8" fill="#1c1917" stroke="#d97706" stroke-width="1"/>
  <text x="990" y="542" text-anchor="middle" font-family="system-ui" font-size="10" font-weight="600" fill="#fde68a">Persona Files (loaded every session)</text>
  <text x="990" y="560" text-anchor="middle" font-family="system-ui" font-size="9" fill="#fbbf24">identity.md | owner.md | soul.md | rules.md | memory.md</text>

  <!-- Connection lines: Daemon to AI -->
  <line x1="760" y1="140" x2="820" y2="155" stroke="#34d399" stroke-width="2" opacity="0.5"/>
  <line x1="760" y1="200" x2="820" y2="220" stroke="#34d399" stroke-width="2" opacity="0.5"/>

  <!-- Connection lines: Daemon to Persistence -->
  <line x1="760" y1="400" x2="820" y2="470" stroke="#fbbf24" stroke-width="2" opacity="0.5"/>
  <line x1="760" y1="500" x2="820" y2="500" stroke="#fbbf24" stroke-width="2" opacity="0.5"/>

  <!-- Connection lines: AI to Persistence -->
  <line x1="990" y1="340" x2="990" y2="390" stroke="#6b7280" stroke-width="1" stroke-dasharray="4,3" opacity="0.3"/>

  <!-- Legend -->
  <rect x="30" y="620" width="1140" height="80" rx="12" fill="#1e1e3f" stroke="#374151" stroke-width="1" filter="url(#shadowD)"/>
  <text x="60" y="645" font-family="system-ui" font-size="11" font-weight="700" fill="#e2e8f0">LEGEND</text>

  <circle cx="80" cy="670" r="8" fill="url(#pinkGradD)"/>
  <text x="95" y="674" font-family="system-ui" font-size="10" fill="#d1d5db">Channels</text>

  <circle cx="200" cy="670" r="8" fill="url(#purpleGradD)"/>
  <text x="215" y="674" font-family="system-ui" font-size="10" fill="#d1d5db">Daemon Core</text>

  <circle cx="340" cy="670" r="8" fill="url(#greenGradD)"/>
  <text x="355" y="674" font-family="system-ui" font-size="10" fill="#d1d5db">AI Layer</text>

  <circle cx="460" cy="670" r="8" fill="url(#orangeGradD)"/>
  <text x="475" y="674" font-family="system-ui" font-size="10" fill="#d1d5db">Persistence</text>

  <line x1="580" y1="670" x2="620" y2="670" stroke="#9ca3af" stroke-width="2"/>
  <text x="630" y="674" font-family="system-ui" font-size="10" fill="#d1d5db">Data flow</text>

  <line x1="720" y1="670" x2="760" y2="670" stroke="#9ca3af" stroke-width="1.5" stroke-dasharray="4,3"/>
  <text x="770" y="674" font-family="system-ui" font-size="10" fill="#d1d5db">Config/event flow</text>

  <rect x="880" y="662" width="16" height="16" rx="3" fill="#1c1917" stroke="#ca8a04" stroke-width="1"/>
  <text x="903" y="674" font-family="system-ui" font-size="10" fill="#d1d5db">pg_notify event bus</text>

  <text x="1080" y="674" font-family="system-ui" font-size="9" fill="#6b7280">v0.4.4</text>
</svg>
