<svg xmlns="http://www.w3.org/2000/svg" viewBox="0 0 1200 720" fill="none">
  <defs>
    <linearGradient id="bgGrad" x1="0%" y1="0%" x2="100%" y2="100%">
      <stop offset="0%" style="stop-color:#f8fafc"/>
      <stop offset="100%" style="stop-color:#f1f5f9"/>
    </linearGradient>
    <linearGradient id="purpleGrad" x1="0%" y1="0%" x2="0%" y2="100%">
      <stop offset="0%" style="stop-color:#8b5cf6"/>
      <stop offset="100%" style="stop-color:#6d28d9"/>
    </linearGradient>
    <linearGradient id="blueGrad" x1="0%" y1="0%" x2="0%" y2="100%">
      <stop offset="0%" style="stop-color:#6366f1"/>
      <stop offset="100%" style="stop-color:#4f46e5"/>
    </linearGradient>
    <linearGradient id="greenGrad" x1="0%" y1="0%" x2="0%" y2="100%">
      <stop offset="0%" style="stop-color:#10b981"/>
      <stop offset="100%" style="stop-color:#059669"/>
    </linearGradient>
    <linearGradient id="orangeGrad" x1="0%" y1="0%" x2="0%" y2="100%">
      <stop offset="0%" style="stop-color:#f59e0b"/>
      <stop offset="100%" style="stop-color:#d97706"/>
    </linearGradient>
    <linearGradient id="pinkGrad" x1="0%" y1="0%" x2="0%" y2="100%">
      <stop offset="0%" style="stop-color:#ec4899"/>
      <stop offset="100%" style="stop-color:#db2777"/>
    </linearGradient>
    <filter id="shadow" x="-4%" y="-4%" width="108%" height="108%">
      <feDropShadow dx="0" dy="4" stdDeviation="6" flood-opacity="0.08"/>
    </filter>
    <filter id="glow" x="-20%" y="-20%" width="140%" height="140%">
      <feGaussianBlur stdDeviation="3" result="blur"/>
      <feMerge><feMergeNode in="blur"/><feMergeNode in="SourceGraphic"/></feMerge>
    </filter>
  </defs>

  <!-- Background -->
  <rect width="1200" height="720" rx="16" fill="url(#bgGrad)"/>

  <!-- Title -->
  <text x="600" y="45" text-anchor="middle" font-family="system-ui, -apple-system, sans-serif" font-size="22" font-weight="700" fill="#1e1b4b">HeyClara System Architecture</text>

  <!-- YOU node -->
  <circle cx="100" cy="360" r="40" fill="url(#blueGrad)" filter="url(#shadow)"/>
  <text x="100" y="355" text-anchor="middle" font-family="system-ui" font-size="24" fill="white">You</text>
  <text x="100" y="375" text-anchor="middle" font-family="system-ui" font-size="10" fill="#c7d2fe">Owner</text>

  <!-- Channel boxes -->
  <g filter="url(#shadow)">
    <rect x="200" y="80" width="140" height="56" rx="12" fill="white" stroke="#ec4899" stroke-width="2"/>
    <text x="270" y="105" text-anchor="middle" font-family="system-ui" font-size="12" font-weight="600" fill="#831843">Telegram</text>
    <text x="270" y="122" text-anchor="middle" font-family="system-ui" font-size="10" fill="#9ca3af">grammY</text>
  </g>
  <g filter="url(#shadow)">
    <rect x="200" y="160" width="140" height="56" rx="12" fill="white" stroke="#ec4899" stroke-width="2"/>
    <text x="270" y="185" text-anchor="middle" font-family="system-ui" font-size="12" font-weight="600" fill="#831843">Slack</text>
    <text x="270" y="202" text-anchor="middle" font-family="system-ui" font-size="10" fill="#9ca3af">Bolt + Socket Mode</text>
  </g>
  <g filter="url(#shadow)">
    <rect x="200" y="240" width="140" height="56" rx="12" fill="white" stroke="#ec4899" stroke-width="2"/>
    <text x="270" y="265" text-anchor="middle" font-family="system-ui" font-size="12" font-weight="600" fill="#831843">Voice &amp; SMS</text>
    <text x="270" y="282" text-anchor="middle" font-family="system-ui" font-size="10" fill="#9ca3af">Twilio + OpenAI RT</text>
  </g>
  <g filter="url(#shadow)">
    <rect x="200" y="320" width="140" height="56" rx="12" fill="white" stroke="#ec4899" stroke-width="2"/>
    <text x="270" y="345" text-anchor="middle" font-family="system-ui" font-size="12" font-weight="600" fill="#831843">WhatsApp</text>
    <text x="270" y="362" text-anchor="middle" font-family="system-ui" font-size="10" fill="#9ca3af">Twilio Sandbox</text>
  </g>
  <g filter="url(#shadow)">
    <rect x="200" y="400" width="140" height="56" rx="12" fill="white" stroke="#ec4899" stroke-width="2"/>
    <text x="270" y="425" text-anchor="middle" font-family="system-ui" font-size="12" font-weight="600" fill="#831843">Terminal</text>
    <text x="270" y="442" text-anchor="middle" font-family="system-ui" font-size="10" fill="#9ca3af">REPL CLI</text>
  </g>

  <!-- Channel label -->
  <text x="270" y="68" text-anchor="middle" font-family="system-ui" font-size="11" font-weight="600" fill="#ec4899" letter-spacing="1">CHANNELS</text>

  <!-- Lines from You to channels -->
  <line x1="140" y1="340" x2="200" y2="108" stroke="#6366f1" stroke-width="1.5" opacity="0.4"/>
  <line x1="140" y1="350" x2="200" y2="188" stroke="#6366f1" stroke-width="1.5" opacity="0.4"/>
  <line x1="140" y1="360" x2="200" y2="268" stroke="#6366f1" stroke-width="1.5" opacity="0.4"/>
  <line x1="140" y1="370" x2="200" y2="348" stroke="#6366f1" stroke-width="1.5" opacity="0.4"/>
  <line x1="140" y1="380" x2="200" y2="428" stroke="#6366f1" stroke-width="1.5" opacity="0.4"/>

  <!-- DAEMON box -->
  <rect x="400" y="60" width="360" height="550" rx="20" fill="white" stroke="url(#purpleGrad)" stroke-width="2.5" filter="url(#shadow)"/>
  <rect x="400" y="60" width="360" height="40" rx="20" fill="url(#purpleGrad)"/>
  <rect x="400" y="80" width="360" height="20" fill="url(#purpleGrad)"/>
  <text x="580" y="86" text-anchor="middle" font-family="system-ui" font-size="13" font-weight="700" fill="white" letter-spacing="1">HEYCLARA DAEMON (Bun.js)</text>

  <!-- Daemon components -->
  <rect x="425" y="115" width="150" height="48" rx="8" fill="#f5f3ff" stroke="#8b5cf6" stroke-width="1.5"/>
  <text x="500" y="137" text-anchor="middle" font-family="system-ui" font-size="11" font-weight="600" fill="#5b21b6">Chat Engine</text>
  <text x="500" y="153" text-anchor="middle" font-family="system-ui" font-size="9" fill="#7c3aed">Sessions + Streaming</text>

  <rect x="585" y="115" width="150" height="48" rx="8" fill="#f5f3ff" stroke="#8b5cf6" stroke-width="1.5"/>
  <text x="660" y="137" text-anchor="middle" font-family="system-ui" font-size="11" font-weight="600" fill="#5b21b6">Identity Loader</text>
  <text x="660" y="153" text-anchor="middle" font-family="system-ui" font-size="9" fill="#7c3aed">Persona + Skills</text>

  <rect x="425" y="178" width="150" height="48" rx="8" fill="#f5f3ff" stroke="#8b5cf6" stroke-width="1.5"/>
  <text x="500" y="200" text-anchor="middle" font-family="system-ui" font-size="11" font-weight="600" fill="#5b21b6">Job Scheduler</text>
  <text x="500" y="216" text-anchor="middle" font-family="system-ui" font-size="9" fill="#7c3aed">Cron + Interval + Once</text>

  <rect x="585" y="178" width="150" height="48" rx="8" fill="#f5f3ff" stroke="#8b5cf6" stroke-width="1.5"/>
  <text x="660" y="200" text-anchor="middle" font-family="system-ui" font-size="11" font-weight="600" fill="#5b21b6">MCP Server</text>
  <text x="660" y="216" text-anchor="middle" font-family="system-ui" font-size="9" fill="#7c3aed">24 Tools</text>

  <rect x="425" y="241" width="150" height="48" rx="8" fill="#f5f3ff" stroke="#8b5cf6" stroke-width="1.5"/>
  <text x="500" y="263" text-anchor="middle" font-family="system-ui" font-size="11" font-weight="600" fill="#5b21b6">Session Finalizer</text>
  <text x="500" y="279" text-anchor="middle" font-family="system-ui" font-size="9" fill="#7c3aed">Consolidator + Summary</text>

  <rect x="585" y="241" width="150" height="48" rx="8" fill="#f5f3ff" stroke="#8b5cf6" stroke-width="1.5"/>
  <text x="660" y="263" text-anchor="middle" font-family="system-ui" font-size="11" font-weight="600" fill="#5b21b6">Alive Monitor</text>
  <text x="660" y="279" text-anchor="middle" font-family="system-ui" font-size="9" fill="#7c3aed">60s Heartbeat</text>

  <rect x="425" y="304" width="310" height="48" rx="8" fill="#f5f3ff" stroke="#8b5cf6" stroke-width="1.5"/>
  <text x="580" y="326" text-anchor="middle" font-family="system-ui" font-size="11" font-weight="600" fill="#5b21b6">Channel Router</text>
  <text x="580" y="342" text-anchor="middle" font-family="system-ui" font-size="9" fill="#7c3aed">Dispatch + Typing Indicators + Thread Awareness</text>

  <!-- Memory pipeline in daemon -->
  <rect x="425" y="367" width="310" height="65" rx="8" fill="#faf5ff" stroke="#a78bfa" stroke-width="1" stroke-dasharray="4,2"/>
  <text x="440" y="385" font-family="system-ui" font-size="9" font-weight="600" fill="#6d28d9">MEMORY PIPELINE</text>
  <rect x="435" y="393" width="85" height="30" rx="6" fill="#ede9fe" stroke="#8b5cf6" stroke-width="1"/>
  <text x="477" y="412" text-anchor="middle" font-family="system-ui" font-size="9" fill="#5b21b6">staging.md</text>
  <text x="530" y="412" text-anchor="middle" font-family="system-ui" font-size="14" fill="#8b5cf6">&#x2192;</text>
  <rect x="545" y="393" width="85" height="30" rx="6" fill="#ede9fe" stroke="#8b5cf6" stroke-width="1"/>
  <text x="587" y="412" text-anchor="middle" font-family="system-ui" font-size="9" fill="#5b21b6">promote</text>
  <text x="640" y="412" text-anchor="middle" font-family="system-ui" font-size="14" fill="#8b5cf6">&#x2192;</text>
  <rect x="655" y="393" width="70" height="30" rx="6" fill="#d8b4fe" stroke="#7c3aed" stroke-width="1"/>
  <text x="690" y="412" text-anchor="middle" font-family="system-ui" font-size="9" fill="#3b0764">permanent</text>

  <!-- Employee System -->
  <rect x="425" y="447" width="310" height="48" rx="8" fill="#fdf4ff" stroke="#d946ef" stroke-width="1.5"/>
  <text x="580" y="469" text-anchor="middle" font-family="system-ui" font-size="11" font-weight="600" fill="#86198f">Employee System</text>
  <text x="580" y="485" text-anchor="middle" font-family="system-ui" font-size="9" fill="#a21caf">Persistent AI Co-founders (own memory, goals, decisions)</text>

  <!-- Watch System -->
  <rect x="425" y="510" width="310" height="48" rx="8" fill="#fff7ed" stroke="#f97316" stroke-width="1.5"/>
  <text x="580" y="532" text-anchor="middle" font-family="system-ui" font-size="11" font-weight="600" fill="#9a3412">Watch Channels</text>
  <text x="580" y="548" text-anchor="middle" font-family="system-ui" font-size="9" fill="#c2410c">Proactive Slack Monitoring + Hot-Reload Behaviors</text>

  <!-- pg_notify label -->
  <rect x="425" y="573" width="310" height="28" rx="6" fill="#fef9c3" stroke="#ca8a04" stroke-width="1"/>
  <text x="580" y="591" text-anchor="middle" font-family="system-ui" font-size="9" font-weight="600" fill="#713f12">pg_notify: clara_jobs + clara_finalize (real-time event bus)</text>

  <!-- Lines from channels to daemon -->
  <line x1="340" y1="108" x2="400" y2="328" stroke="#ec4899" stroke-width="1.5" opacity="0.5"/>
  <line x1="340" y1="188" x2="400" y2="328" stroke="#ec4899" stroke-width="1.5" opacity="0.5"/>
  <line x1="340" y1="268" x2="400" y2="328" stroke="#ec4899" stroke-width="1.5" opacity="0.5"/>
  <line x1="340" y1="348" x2="400" y2="328" stroke="#ec4899" stroke-width="1.5" opacity="0.5"/>
  <line x1="340" y1="428" x2="400" y2="328" stroke="#ec4899" stroke-width="1.5" opacity="0.5"/>

  <!-- AI LAYER -->
  <rect x="820" y="80" width="340" height="260" rx="16" fill="white" stroke="url(#greenGrad)" stroke-width="2" filter="url(#shadow)"/>
  <rect x="820" y="80" width="340" height="36" rx="16" fill="url(#greenGrad)"/>
  <rect x="820" y="100" width="340" height="16" fill="url(#greenGrad)"/>
  <text x="990" y="104" text-anchor="middle" font-family="system-ui" font-size="12" font-weight="700" fill="white" letter-spacing="1">AI LAYER</text>

  <rect x="845" y="130" width="140" height="50" rx="8" fill="#ecfdf5" stroke="#10b981" stroke-width="1.5"/>
  <text x="915" y="152" text-anchor="middle" font-family="system-ui" font-size="11" font-weight="600" fill="#064e3b">Claude SDK</text>
  <text x="915" y="170" text-anchor="middle" font-family="system-ui" font-size="9" fill="#059669">query() + streaming</text>

  <rect x="995" y="130" width="140" height="50" rx="8" fill="#ecfdf5" stroke="#10b981" stroke-width="1.5"/>
  <text x="1065" y="152" text-anchor="middle" font-family="system-ui" font-size="11" font-weight="600" fill="#064e3b">Codex CLI</text>
  <text x="1065" y="170" text-anchor="middle" font-family="system-ui" font-size="9" fill="#059669">Failover Backend</text>

  <rect x="845" y="195" width="140" height="50" rx="8" fill="#ecfdf5" stroke="#10b981" stroke-width="1.5"/>
  <text x="915" y="217" text-anchor="middle" font-family="system-ui" font-size="11" font-weight="600" fill="#064e3b">Subagents</text>
  <text x="915" y="235" text-anchor="middle" font-family="system-ui" font-size="9" fill="#059669">Marketer, Dev, Custom</text>

  <rect x="995" y="195" width="140" height="50" rx="8" fill="#ecfdf5" stroke="#10b981" stroke-width="1.5"/>
  <text x="1065" y="217" text-anchor="middle" font-family="system-ui" font-size="11" font-weight="600" fill="#064e3b">OpenAI Realtime</text>
  <text x="1065" y="235" text-anchor="middle" font-family="system-ui" font-size="9" fill="#059669">Voice Audio Bridge</text>

  <rect x="845" y="260" width="290" height="50" rx="8" fill="#d1fae5" stroke="#059669" stroke-width="1.5"/>
  <text x="990" y="282" text-anchor="middle" font-family="system-ui" font-size="11" font-weight="600" fill="#064e3b">Gemini (Image Generation)</text>
  <text x="990" y="300" text-anchor="middle" font-family="system-ui" font-size="9" fill="#059669">Visual identity + general-purpose images</text>

  <!-- Failover arrow -->
  <path d="M 985 155 L 995 155" stroke="#ef4444" stroke-width="2" marker-end="url(#arrowRed)"/>
  <text x="990" y="125" text-anchor="middle" font-family="system-ui" font-size="8" fill="#dc2626">failover</text>

  <!-- PERSISTENCE -->
  <rect x="820" y="390" width="340" height="220" rx="16" fill="white" stroke="url(#orangeGrad)" stroke-width="2" filter="url(#shadow)"/>
  <rect x="820" y="390" width="340" height="36" rx="16" fill="url(#orangeGrad)"/>
  <rect x="820" y="410" width="340" height="16" fill="url(#orangeGrad)"/>
  <text x="990" y="414" text-anchor="middle" font-family="system-ui" font-size="12" font-weight="700" fill="white" letter-spacing="1">PERSISTENCE</text>

  <rect x="845" y="440" width="140" height="65" rx="8" fill="#fffbeb" stroke="#f59e0b" stroke-width="1.5"/>
  <text x="915" y="462" text-anchor="middle" font-family="system-ui" font-size="11" font-weight="600" fill="#78350f">PostgreSQL</text>
  <text x="915" y="478" text-anchor="middle" font-family="system-ui" font-size="9" fill="#92400e">Jobs</text>
  <text x="915" y="492" text-anchor="middle" font-family="system-ui" font-size="9" fill="#92400e">Messages + Sessions</text>

  <rect x="995" y="440" width="140" height="65" rx="8" fill="#fffbeb" stroke="#f59e0b" stroke-width="1.5"/>
  <text x="1065" y="462" text-anchor="middle" font-family="system-ui" font-size="11" font-weight="600" fill="#78350f">~/.heyclara/</text>
  <text x="1065" y="478" text-anchor="middle" font-family="system-ui" font-size="9" fill="#92400e">Config + Persona</text>
  <text x="1065" y="492" text-anchor="middle" font-family="system-ui" font-size="9" fill="#92400e">Job State + Watches</text>

  <rect x="845" y="520" width="290" height="55" rx="8" fill="#fef3c7" stroke="#d97706" stroke-width="1"/>
  <text x="990" y="542" text-anchor="middle" font-family="system-ui" font-size="10" font-weight="600" fill="#78350f">Persona Files (loaded every session)</text>
  <text x="990" y="560" text-anchor="middle" font-family="system-ui" font-size="9" fill="#92400e">identity.md | owner.md | soul.md | rules.md | memory.md</text>

  <!-- Connection lines: Daemon to AI -->
  <line x1="760" y1="140" x2="820" y2="155" stroke="#10b981" stroke-width="2" opacity="0.6"/>
  <line x1="760" y1="200" x2="820" y2="220" stroke="#10b981" stroke-width="2" opacity="0.6"/>

  <!-- Connection lines: Daemon to Persistence -->
  <line x1="760" y1="400" x2="820" y2="470" stroke="#f59e0b" stroke-width="2" opacity="0.6"/>
  <line x1="760" y1="500" x2="820" y2="500" stroke="#f59e0b" stroke-width="2" opacity="0.6"/>

  <!-- Connection lines: AI to Persistence -->
  <line x1="990" y1="340" x2="990" y2="390" stroke="#6b7280" stroke-width="1" stroke-dasharray="4,3" opacity="0.4"/>

  <!-- Legend -->
  <rect x="30" y="620" width="1140" height="80" rx="12" fill="white" stroke="#e5e7eb" stroke-width="1" filter="url(#shadow)"/>
  <text x="60" y="645" font-family="system-ui" font-size="11" font-weight="700" fill="#374151">LEGEND</text>

  <circle cx="80" cy="670" r="8" fill="url(#pinkGrad)"/>
  <text x="95" y="674" font-family="system-ui" font-size="10" fill="#4b5563">Channels</text>

  <circle cx="200" cy="670" r="8" fill="url(#purpleGrad)"/>
  <text x="215" y="674" font-family="system-ui" font-size="10" fill="#4b5563">Daemon Core</text>

  <circle cx="340" cy="670" r="8" fill="url(#greenGrad)"/>
  <text x="355" y="674" font-family="system-ui" font-size="10" fill="#4b5563">AI Layer</text>

  <circle cx="460" cy="670" r="8" fill="url(#orangeGrad)"/>
  <text x="475" y="674" font-family="system-ui" font-size="10" fill="#4b5563">Persistence</text>

  <line x1="580" y1="670" x2="620" y2="670" stroke="#6b7280" stroke-width="2"/>
  <text x="630" y="674" font-family="system-ui" font-size="10" fill="#4b5563">Data flow</text>

  <line x1="720" y1="670" x2="760" y2="670" stroke="#6b7280" stroke-width="1.5" stroke-dasharray="4,3"/>
  <text x="770" y="674" font-family="system-ui" font-size="10" fill="#4b5563">Config/event flow</text>

  <rect x="880" y="662" width="16" height="16" rx="3" fill="#fef3c7" stroke="#d97706" stroke-width="1"/>
  <text x="903" y="674" font-family="system-ui" font-size="10" fill="#4b5563">pg_notify event bus</text>

  <text x="1080" y="674" font-family="system-ui" font-size="9" fill="#9ca3af">v0.4.4</text>
</svg>
